<?xml version="1.0" encoding="utf-8"?>
<svg width="24" height="24" viewBox="0 0 24 24" fill="none" stroke="none" version="1.1" xmlns:xlink="http://www.w3.org/1999/xlink" xmlns="http://www.w3.org/2000/svg">
  <path id="Shape" d="M12 0C11.7385 0 11.4875 0.102295 11.3008 0.285156C11.3008 0.285156 0.392578 9.20703 0.392578 9.20703C0.379883 9.21655 0.367676 9.22632 0.355469 9.23633C0.355469 9.23633 0.318359 9.26758 0.318359 9.26758C0.318359 9.26758 0.318359 9.26953 0.318359 9.26953C0.115723 9.4585 0.000244141 9.7229 0 10C0 10.5522 0.447754 11 1 11C1 11 2 11 2 11C2 11 2 22 2 22C2 23.105 2.89502 24 4 24C4 24 20 24 20 24C21.105 24 22 23.105 22 22C22 22 22 11 22 11C22 11 23 11 23 11C23.5522 11 24 10.5522 24 10C24.0002 9.72217 23.8848 9.45679 23.6816 9.26758C23.6816 9.26758 23.666 9.25586 23.666 9.25586C23.644 9.23608 23.6213 9.21704 23.5977 9.19922C23.5977 9.19922 22 7.89258 22 7.89258C22 7.89258 22 4 22 4C22 3.448 21.552 3 21 3C21 3 20 3 20 3C19.448 3 19 3.448 19 4C19 4 19 5.43945 19 5.43945C19 5.43945 12.6777 0.267578 12.6777 0.267578C12.4934 0.0964355 12.2515 0.000732422 12 0C12 0 12 0 12 0ZM15 13L19 13L19 21L15 21L15 13L15 13Z" style="fill:#FFFFFF;mix-blend-mode:normal;" />
</svg>